<?xml version="1.0" standalone="no"?><!DOCTYPE svg PUBLIC "-//W3C//DTD SVG 1.1//EN" "http://www.w3.org/Graphics/SVG/1.1/DTD/svg11.dtd"><svg t="1677247792779" class="icon" viewBox="0 0 1024 1024" version="1.1" xmlns="http://www.w3.org/2000/svg" p-id="2819" xmlns:xlink="http://www.w3.org/1999/xlink" width="200" height="200"><path d="M832 665.6v-164.266667c0-17.066667-14.933333-32-32-32h-256v-128H789.333333c23.466667 0 42.666667-19.2 42.666667-42.666666V149.333333c0-23.466667-19.2-42.666667-42.666667-42.666666H234.666667c-23.466667 0-42.666667 19.2-42.666667 42.666666v149.333334c0 23.466667 19.2 42.666667 42.666667 42.666666h245.333333v128h-256c-17.066667 0-32 14.933333-32 32v164.266667c-55.466667 14.933333-96 64-96 123.733333 0 70.4 57.6 128 128 128s128-57.6 128-128c0-59.733333-40.533333-108.8-96-123.733333V533.333333h224v132.266667c-55.466667 14.933333-96 64-96 123.733333 0 70.4 57.6 128 128 128s128-57.6 128-128c0-59.733333-40.533333-108.8-96-123.733333V533.333333H768v132.266667c-55.466667 14.933333-96 64-96 123.733333 0 70.4 57.6 128 128 128s128-57.6 128-128c0-59.733333-40.533333-108.8-96-123.733333zM256 170.666667h512v106.666666H256V170.666667z m32 618.666666c0 36.266667-27.733333 64-64 64s-64-27.733333-64-64 27.733333-64 64-64 64 27.733333 64 64zM576 789.333333c0 36.266667-27.733333 64-64 64s-64-27.733333-64-64 27.733333-64 64-64 64 27.733333 64 64z m224 64c-36.266667 0-64-27.733333-64-64s27.733333-64 64-64 64 27.733333 64 64-27.733333 64-64 64z" p-id="2820"></path></svg>