<?xml version="1.0" standalone="no"?><!DOCTYPE svg PUBLIC "-//W3C//DTD SVG 1.1//EN" "http://www.w3.org/Graphics/SVG/1.1/DTD/svg11.dtd"><svg t="1677247869411" class="icon" viewBox="0 0 1024 1024" version="1.1" xmlns="http://www.w3.org/2000/svg" p-id="8885" xmlns:xlink="http://www.w3.org/1999/xlink" width="200" height="200"><path d="M595.072 290.288L537.472 160H108.8A28.528 28.528 0 0 0 80 188.24V880h864V290.288H595.072zM137.6 244.688a28.528 28.528 0 0 1 28.8-28.224h342.272l28.8 73.824H137.6v-45.6z m748.8 578.848H137.6v-476.8h748.8v476.8z" fill="#040000" p-id="8886"></path><path d="M595.072 290.288L537.472 160H108.8A28.528 28.528 0 0 0 80 188.24V880h864V290.288H595.072zM137.6 244.688a28.528 28.528 0 0 1 28.8-28.224h342.272l28.8 73.824H137.6v-45.6z m748.8 578.848H137.6v-476.8h748.8v476.8z" fill="#040000" p-id="8887"></path></svg>